<?xml version="1.0" standalone="no"?>
<!DOCTYPE svg PUBLIC "-//W3C//DTD SVG 20010904//EN"
 "http://www.w3.org/TR/2001/REC-SVG-20010904/DTD/svg10.dtd">
<svg version="1.0" xmlns="http://www.w3.org/2000/svg"
 width="24.000000pt" height="24.000000pt" viewBox="0 0 24.000000 24.000000"
 preserveAspectRatio="xMidYMid meet">

<g transform="translate(0.000000,24.000000) scale(0.100000,-0.100000)"
fill="#000000" stroke="none">
<path d="M48 139 l-15 -91 44 -21 43 -21 43 21 44 21 -11 69 c-10 57 -15 68
-31 66 -10 -1 -24 6 -30 14 -7 9 -17 13 -24 9 -6 -4 -14 0 -17 8 -15 39 -32
12 -46 -75z m42 44 c-1 -10 -8 -29 -16 -43 -8 -14 -13 -17 -10 -7 3 10 6 30 6
43 0 13 5 24 10 24 6 0 10 -8 10 -17z m40 -16 c0 -8 -12 -24 -26 -38 l-26 -24
18 38 c18 37 34 49 34 24z m53 -69 c5 -34 3 -39 -28 -58 -26 -16 -39 -19 -52
-11 -51 29 -51 27 7 86 59 60 61 60 73 -17z"/>
</g>
</svg>
